<?xml version="1.0" encoding="utf-8"?>
<!-- Generator: Adobe Illustrator 17.1.0, SVG Export Plug-In . SVG Version: 6.00 Build 0)  -->
<!DOCTYPE svg PUBLIC "-//W3C//DTD SVG 1.1//EN" "http://www.w3.org/Graphics/SVG/1.1/DTD/svg11.dtd">
<svg version="1.1" id="Layer_1" xmlns="http://www.w3.org/2000/svg" xmlns:xlink="http://www.w3.org/1999/xlink" x="0px" y="0px"
	 viewBox="0 0 330.092 44.268" enable-background="new 0 0 330.092 44.268" xml:space="preserve">
<g>
	<path fill="#FFFFFF" d="M46.828,43.231H35.677c-1.396,0-2.635-0.893-3.076-2.217l-1.959-5.875H15.978l-1.843,5.828
		c-0.426,1.348-1.678,2.265-3.092,2.265H0L14.871,0h17.362L46.828,43.231z M23.448,9.753l-4.842,15.148h9.407L23.448,9.753z"/>
	<path fill="#FFFFFF" d="M83.929,11.136v32.095H70.303V11.136h-9.83c-1.791,0-3.243-1.452-3.243-3.243V0h39.772v7.893
		c0,1.791-1.452,3.243-3.243,3.243H83.929z"/>
	<path fill="#FFFFFF" d="M181.782,43.582h-10.384V0h19.576c6.04,0,10.617,1.28,13.73,3.839c3.112,2.559,4.669,6.007,4.669,10.34
		c0,2.767-0.681,5.246-2.041,7.436c-1.36,2.191-3.493,3.862-6.398,5.015l10.721,16.6h-13.225c-1.148,0-2.211-0.607-2.794-1.596
		l-6.806-11.546l-3.804,0.346v9.905C185.025,42.13,183.573,43.582,181.782,43.582z M189.452,20.681
		c2.075-0.23,3.561-0.772,4.461-1.625c0.9-0.853,1.349-2.155,1.349-3.908c0-1.614-0.508-2.812-1.522-3.597
		c-1.015-0.783-2.767-1.176-5.257-1.176h-3.736v10.376L189.452,20.681z"/>
	<path fill="#FFFFFF" d="M274.357,43.231h-11.151c-1.396,0-2.635-0.893-3.077-2.218l-1.958-5.875h-14.663l-1.843,5.828
		c-0.426,1.348-1.678,2.265-3.092,2.265h-11.044L242.4,0h17.362L274.357,43.231z M250.977,9.753l-4.842,15.148h9.407L250.977,9.753z
		"/>
	<path fill="#FFFFFF" d="M328.604,33.72c-0.992,2.421-2.375,4.416-4.15,5.983c-1.776,1.568-3.897,2.721-6.364,3.459
		c-2.467,0.737-5.177,1.107-8.127,1.107c-2.86,0-5.523-0.323-7.989-0.969c-2.467-0.645-4.6-1.694-6.398-3.147
		c-1.798-1.452-3.206-3.32-4.219-5.603c-1.015-2.283-1.522-5.06-1.522-8.335V0h10.383c1.791,0,3.243,1.452,3.243,3.243v21.312
		c0,2.905,0.53,5.049,1.591,6.433c1.06,1.383,2.767,2.075,5.119,2.075c2.259,0,3.884-0.599,4.877-1.798
		c0.991-1.199,1.487-3.32,1.487-6.364V3.243c0-1.791,1.452-3.243,3.243-3.243h10.314v25.109
		C330.092,28.428,329.596,31.299,328.604,33.72z"/>
	<path fill="#FFFFFF" d="M154.097,43.366h-11.151c-1.396,0-2.635-0.893-3.077-2.218l-1.958-5.875h-14.664l-1.843,5.828
		c-0.426,1.348-1.678,2.265-3.092,2.265h-11.044l14.872-43.231h17.362L154.097,43.366z M130.717,9.888l-4.842,15.148h9.407
		L130.717,9.888z"/>
</g>
</svg>
