<?xml version="1.0" encoding="utf-8"?>
<!-- Generator: Adobe Illustrator 17.1.0, SVG Export Plug-In . SVG Version: 6.00 Build 0)  -->
<!DOCTYPE svg PUBLIC "-//W3C//DTD SVG 1.1 Basic//EN" "http://www.w3.org/Graphics/SVG/1.1/DTD/svg11-basic.dtd">
<svg version="1.1" baseProfile="basic" id="Layer_1"
	 xmlns="http://www.w3.org/2000/svg" xmlns:xlink="http://www.w3.org/1999/xlink" x="0px" y="0px" viewBox="0 64.9 150 20.1"
	 xml:space="preserve">
<g>
	<path fill="#030C19" d="M21.3,84.6h-5.1c-0.6,0-1.2-0.4-1.4-1l-0.9-2.7H7.3l-0.8,2.6c-0.2,0.6-0.8,1-1.4,1H0l6.8-19.6h7.9
		L21.3,84.6z M10.7,69.4l-2.2,6.9h4.3L10.7,69.4z"/>
	<path fill="#030C19" d="M38.1,70v14.6h-6.2V70h-4.5c-0.8,0-1.5-0.7-1.5-1.5v-3.6h18.1v3.6c0,0.8-0.7,1.5-1.5,1.5H38.1z"/>
	<path fill="#030C19" d="M82.6,84.7h-4.7V64.9h8.9c2.7,0,4.8,0.6,6.2,1.7c1.4,1.2,2.1,2.7,2.1,4.7c0,1.3-0.3,2.4-0.9,3.4
		c-0.6,1-1.6,1.8-2.9,2.3l4.9,7.5h-6c-0.5,0-1-0.3-1.3-0.7l-3.1-5.2l-1.7,0.2v4.5C84.1,84.1,83.4,84.7,82.6,84.7z M86.1,74.3
		c0.9-0.1,1.6-0.4,2-0.7s0.6-1,0.6-1.8c0-0.7-0.2-1.3-0.7-1.6c-0.5-0.4-1.3-0.5-2.4-0.5H84v4.7L86.1,74.3z"/>
	<path fill="#030C19" d="M124.7,84.6h-5.1c-0.6,0-1.2-0.4-1.4-1l-0.9-2.7h-6.7l-0.8,2.6c-0.2,0.6-0.8,1-1.4,1h-5l6.8-19.6h7.9
		L124.7,84.6z M114,69.4l-2.2,6.9h4.3L114,69.4z"/>
	<path fill="#030C19" d="M149.3,80.3c-0.5,1.1-1.1,2-1.9,2.7c-0.8,0.7-1.8,1.2-2.9,1.6c-1.1,0.3-2.4,0.5-3.7,0.5
		c-1.3,0-2.5-0.1-3.6-0.4c-1.1-0.3-2.1-0.8-2.9-1.4c-0.8-0.7-1.5-1.5-1.9-2.5c-0.5-1-0.7-2.3-0.7-3.8V64.9h4.7
		c0.8,0,1.5,0.7,1.5,1.5v9.7c0,1.3,0.2,2.3,0.7,2.9c0.5,0.6,1.3,0.9,2.3,0.9c1,0,1.8-0.3,2.2-0.8c0.5-0.5,0.7-1.5,0.7-2.9v-9.8
		c0-0.8,0.7-1.5,1.5-1.5h4.7v11.4C150,77.9,149.8,79.2,149.3,80.3z"/>
	<path fill="#030C19" d="M70,84.6H65c-0.6,0-1.2-0.4-1.4-1L62.7,81H56l-0.8,2.6c-0.2,0.6-0.8,1-1.4,1h-5L55.5,65h7.9L70,84.6z
		 M59.4,69.4l-2.2,6.9h4.3L59.4,69.4z"/>
</g>
</svg>
