<?xml version="1.0" encoding="utf-8"?>
<!-- Generator: Adobe Illustrator 17.1.0, SVG Export Plug-In . SVG Version: 6.00 Build 0)  -->
<!DOCTYPE svg PUBLIC "-//W3C//DTD SVG 1.1 Basic//EN" "http://www.w3.org/Graphics/SVG/1.1/DTD/svg11-basic.dtd">
<svg version="1.1" baseProfile="basic" id="Layer_1"
	 xmlns="http://www.w3.org/2000/svg" xmlns:xlink="http://www.w3.org/1999/xlink" x="0px" y="0px" viewBox="0 0 100 100"
	 xml:space="preserve">
<g id="Layer_1_1_">
	<g>
		<g>
			<path fill="#2EB36B" d="M64.9,90.3c-0.7,0-1.2-0.3-1.6-0.7c-0.4-0.4-0.7-1-0.7-1.6s0.3-1.2,0.7-1.6c0.8-0.8,2.4-0.8,3.3,0
				c0.4,0.4,0.7,1,0.7,1.6s-0.3,1.2-0.7,1.6C66.1,90.2,65.5,90.3,64.9,90.3z"/>
			<path fill="#2EB36B" d="M54.7,88c0-1.3,1-2.3,2.3-2.3l0,0c1.3,0,2.3,1,2.3,2.3l0,0c0,1.3-1,2.3-2.3,2.3l0,0
				C55.8,90.3,54.7,89.3,54.7,88z M46.9,88c0-1.3,1-2.3,2.3-2.3l0,0c1.3,0,2.3,1,2.3,2.3l0,0c0,1.3-1,2.3-2.3,2.3l0,0
				C47.9,90.3,46.9,89.3,46.9,88z M39.1,88c0-1.3,1-2.3,2.3-2.3l0,0c1.3,0,2.3,1,2.3,2.3l0,0c0,1.3-1,2.3-2.3,2.3l0,0
				C40.1,90.3,39.1,89.3,39.1,88z M31.3,88c0-1.3,1-2.3,2.3-2.3l0,0c1.3,0,2.3,1,2.3,2.3l0,0c0,1.3-1,2.3-2.3,2.3l0,0
				C32.3,90.3,31.3,89.3,31.3,88z M23.5,88c0-1.3,1-2.3,2.3-2.3l0,0c1.3,0,2.3,1,2.3,2.3l0,0c0,1.3-1,2.3-2.3,2.3l0,0
				C24.5,90.3,23.5,89.3,23.5,88z M15.6,88c0-1.3,1-2.3,2.3-2.3l0,0c1.3,0,2.3,1,2.3,2.3l0,0c0,1.3-1,2.3-2.3,2.3l0,0
				C16.6,90.3,15.6,89.3,15.6,88z M7.8,88c0-1.3,1-2.3,2.3-2.3l0,0c1.3,0,2.3,1,2.3,2.3l0,0c0,1.3-1,2.3-2.3,2.3l0,0
				C8.9,90.3,7.8,89.3,7.8,88z"/>
			<path fill="#2EB36B" d="M2.3,90.3c-0.7,0-1.2-0.3-1.6-0.7C0.2,89.2,0,88.6,0,88s0.3-1.2,0.7-1.6c0.8-0.8,2.4-0.8,3.3,0
				c0.4,0.4,0.7,1,0.7,1.6c0,0.7-0.3,1.2-0.7,1.6C3.6,90.1,2.9,90.3,2.3,90.3z"/>
			<path fill="#2EB36B" d="M0,80.2c0-1.3,1-2.3,2.3-2.3l0,0c1.3,0,2.3,1,2.3,2.3l0,0c0,1.3-1,2.3-2.3,2.3l0,0C1,82.5,0,81.4,0,80.2z
				 M0,72.3C0,71,1,70,2.3,70l0,0c1.3,0,2.3,1,2.3,2.3l0,0c0,1.3-1,2.3-2.3,2.3l0,0C1,74.6,0,73.6,0,72.3z M0,64.3C0,63,1,62,2.3,62
				l0,0c1.3,0,2.3,1,2.3,2.3l0,0c0,1.3-1,2.3-2.3,2.3l0,0C1,66.6,0,65.7,0,64.3z M0,56.4c0-1.3,1-2.3,2.3-2.3l0,0
				c1.3,0,2.3,1,2.3,2.3l0,0c0,1.3-1,2.3-2.3,2.3l0,0C1,58.7,0,57.7,0,56.4z M0,48.6c0-1.3,1-2.3,2.3-2.3l0,0c1.3,0,2.3,1,2.3,2.3
				l0,0c0,1.3-1,2.3-2.3,2.3l0,0C1,50.9,0,49.8,0,48.6z M0,40.7c0-1.3,1-2.3,2.3-2.3l0,0c1.3,0,2.3,1,2.3,2.3l0,0
				c0,1.3-1,2.3-2.3,2.3l0,0C1,43,0,42,0,40.7z M0,32.8c0-1.3,1-2.3,2.3-2.3l0,0c1.3,0,2.3,1,2.3,2.3l0,0c0,1.3-1,2.3-2.3,2.3l0,0
				C1,35.1,0,34.1,0,32.8z"/>
			<path fill="#2EB36B" d="M2.3,27.2c-0.7,0-1.2-0.3-1.6-0.7C0.2,26,0,25.4,0,24.9c0-0.7,0.3-1.2,0.7-1.6c0.8-0.8,2.4-0.8,3.3,0
				c0.4,0.4,0.7,1,0.7,1.6c0,0.7-0.3,1.2-0.7,1.6S2.9,27.2,2.3,27.2z"/>
			<path fill="#2EB36B" d="M54.7,24.9c0-1.3,1-2.3,2.3-2.3l0,0c1.3,0,2.3,1,2.3,2.3l0,0c0,1.3-1,2.3-2.3,2.3l0,0
				C55.8,27.2,54.7,26.2,54.7,24.9z M46.9,24.9c0-1.3,1-2.3,2.3-2.3l0,0c1.3,0,2.3,1,2.3,2.3l0,0c0,1.3-1,2.3-2.3,2.3l0,0
				C47.9,27.2,46.9,26.2,46.9,24.9z M39.1,24.9c0-1.3,1-2.3,2.3-2.3l0,0c1.3,0,2.3,1,2.3,2.3l0,0c0,1.3-1,2.3-2.3,2.3l0,0
				C40.1,27.2,39.1,26.2,39.1,24.9z M31.3,24.9c0-1.3,1-2.3,2.3-2.3l0,0c1.3,0,2.3,1,2.3,2.3l0,0c0,1.3-1,2.3-2.3,2.3l0,0
				C32.3,27.2,31.3,26.2,31.3,24.9z M23.5,24.9c0-1.3,1-2.3,2.3-2.3l0,0c1.3,0,2.3,1,2.3,2.3l0,0c0,1.3-1,2.3-2.3,2.3l0,0
				C24.5,27.2,23.5,26.2,23.5,24.9z M15.6,24.9c0-1.3,1-2.3,2.3-2.3l0,0c1.3,0,2.3,1,2.3,2.3l0,0c0,1.3-1,2.3-2.3,2.3l0,0
				C16.6,27.2,15.6,26.2,15.6,24.9z M7.8,24.9c0-1.3,1-2.3,2.3-2.3l0,0c1.3,0,2.3,1,2.3,2.3l0,0c0,1.3-1,2.3-2.3,2.3l0,0
				C8.9,27.2,7.8,26.2,7.8,24.9z"/>
			<path fill="#2EB36B" d="M64.9,27.2c-0.7,0-1.2-0.3-1.6-0.7c-0.4-0.4-0.7-1-0.7-1.6c0-0.5,0.3-1.2,0.7-1.6c0.8-0.8,2.4-0.8,3.3,0
				c0.4,0.4,0.7,1,0.7,1.6c0,0.7-0.3,1.2-0.7,1.6C66.1,27,65.5,27.2,64.9,27.2z"/>
			<path fill="#2EB36B" d="M62.6,80.2c0-1.3,1-2.3,2.3-2.3l0,0c1.3,0,2.3,1,2.3,2.3l0,0c0,1.3-1,2.3-2.3,2.3l0,0
				C63.7,82.5,62.6,81.4,62.6,80.2z M62.6,72.3c0-1.3,1-2.3,2.3-2.3l0,0c1.3,0,2.3,1,2.3,2.3l0,0c0,1.3-1,2.3-2.3,2.3l0,0
				C63.7,74.6,62.6,73.6,62.6,72.3z M62.6,64.3c0-1.3,1-2.3,2.3-2.3l0,0c1.3,0,2.3,1,2.3,2.3l0,0c0,1.3-1,2.3-2.3,2.3l0,0
				C63.7,66.6,62.6,65.7,62.6,64.3z M62.6,56.4c0-1.3,1-2.3,2.3-2.3l0,0c1.3,0,2.3,1,2.3,2.3l0,0c0,1.3-1,2.3-2.3,2.3l0,0
				C63.7,58.7,62.6,57.7,62.6,56.4z M62.6,48.6c0-1.3,1-2.3,2.3-2.3l0,0c1.3,0,2.3,1,2.3,2.3l0,0c0,1.3-1,2.3-2.3,2.3l0,0
				C63.7,50.9,62.6,49.8,62.6,48.6z M62.6,40.7c0-1.3,1-2.3,2.3-2.3l0,0c1.3,0,2.3,1,2.3,2.3l0,0c0,1.3-1,2.3-2.3,2.3l0,0
				C63.7,43,62.6,42,62.6,40.7z M62.6,32.8c0-1.3,1-2.3,2.3-2.3l0,0c1.3,0,2.3,1,2.3,2.3l0,0c0,1.3-1,2.3-2.3,2.3l0,0
				C63.7,35.1,62.6,34.1,62.6,32.8z"/>
		</g>
		<path fill="#2EB36B" d="M32,75.3c-0.1,0-0.1,0-0.3,0l0,0c-0.4-0.1-0.7-0.1-1.1-0.4c-0.1,0-0.1-0.1-0.1-0.1L18.5,64.2
			c-0.9-0.8-1-2.3-0.1-3.3c0.9-1,2.3-1,3.3-0.1l8,7.2V39.8c0-1.3,1-2.3,2.3-2.3s2.3,1,2.3,2.3v27.9l8-7.2c0.9-0.8,2.4-0.7,3.3,0.1
			c0.4,0.4,0.6,1,0.6,1.6c0,0.7-0.3,1.3-0.7,1.8l-12,10.6l0,0c-0.4,0.4-0.9,0.6-1.4,0.6C32,75.3,32,75.3,32,75.3z"/>
		<path fill="#2EB36B" d="M77.7,78h-5.5c-1.3,0-2.3-1-2.3-2.3c0-1.3,1-2.3,2.3-2.3h3.1V14.9H17.4v2.6c0,1.3-1,2.3-2.3,2.3
			s-2.3-1-2.3-2.4v-4.9c0-1.3,1-2.3,2.3-2.3h62.6c1.3,0,2.3,1,2.3,2.3v63.2C80.1,77,79,78,77.7,78z"/>
	</g>
</g>
</svg>
