<?xml version="1.0" encoding="utf-8"?>
<!-- Generator: Adobe Illustrator 17.1.0, SVG Export Plug-In . SVG Version: 6.00 Build 0)  -->
<!DOCTYPE svg PUBLIC "-//W3C//DTD SVG 1.1 Basic//EN" "http://www.w3.org/Graphics/SVG/1.1/DTD/svg11-basic.dtd">
<svg version="1.1" baseProfile="basic" id="Layer_1"
	 xmlns="http://www.w3.org/2000/svg" xmlns:xlink="http://www.w3.org/1999/xlink" x="0px" y="0px" viewBox="0 0 100 100"
	 xml:space="preserve">
<g id="Layer_2">
	<g>
		<path fill="#2EB36B" d="M17.1,24H2.3C1,24,0,22.9,0,21.7c0-1.3,1-2.3,2.3-2.3h14.8c1.3,0,2.3,1,2.3,2.3C19.4,23,18.4,24,17.1,24z"
			/>
		<path fill="#2EB36B" d="M25.6,32.5c-6,0-10.8-4.8-10.8-10.8s4.8-10.8,10.8-10.8s10.8,4.8,10.8,10.8S31.4,32.5,25.6,32.5z
			 M25.6,15.6c-3.3,0-6.2,2.7-6.2,6.1s2.7,6.1,6.2,6.1c3.4,0,6.1-2.7,6.1-6.1S28.9,15.6,25.6,15.6z"/>
		<g>
			<path fill="#2EB36B" d="M42.5,24c-0.6,0-1.2-0.3-1.6-0.7c-0.4-0.4-0.7-1-0.7-1.6c0-0.6,0.3-1.2,0.7-1.6c0.8-0.8,2.5-0.8,3.3,0
				c0.4,0.4,0.7,1,0.7,1.6c0,0.6-0.3,1.2-0.7,1.6C43.7,23.8,43.2,24,42.5,24z"/>
			<path fill="#2EB36B" d="M68.3,21.7c0-1.3,1-2.3,2.3-2.3l0,0c1.3,0,2.3,1,2.3,2.3l0,0c0,1.3-1,2.3-2.3,2.3l0,0
				C69.4,24,68.3,23,68.3,21.7z M61.3,21.7c0-1.3,1-2.3,2.3-2.3l0,0c1.3,0,2.3,1,2.3,2.3l0,0c0,1.3-1,2.3-2.3,2.3l0,0
				C62.3,24,61.3,23,61.3,21.7z M54.2,21.7c0-1.3,1-2.3,2.3-2.3l0,0c1.3,0,2.3,1,2.3,2.3l0,0c0,1.3-1,2.3-2.3,2.3l0,0
				C55.4,24,54.2,23,54.2,21.7z M47.3,21.7c0-1.3,1-2.3,2.3-2.3l0,0c1.3,0,2.3,1,2.3,2.3l0,0c0,1.3-1,2.3-2.3,2.3l0,0
				C48.2,24,47.3,23,47.3,21.7z"/>
			<path fill="#2EB36B" d="M77.7,24c-0.7,0-1.2-0.3-1.6-0.7c-0.4-0.4-0.7-1-0.7-1.6c0-0.6,0.3-1.2,0.7-1.6c0.8-0.8,2.4-0.8,3.3,0
				c0.4,0.4,0.7,1,0.7,1.6c0,0.6-0.3,1.2-0.7,1.6C78.9,23.8,78.3,24,77.7,24z"/>
		</g>
		<path fill="#2EB36B" d="M57.2,61c-6,0-10.8-4.8-10.8-10.8s4.8-10.8,10.8-10.8s10.8,4.8,10.8,10.8C67.9,56.1,63,61,57.2,61z
			 M57.2,44c-3.3,0-6.2,2.7-6.2,6.1s2.7,6.1,6.2,6.1c3.4,0,6.1-2.7,6.1-6.1C63.3,46.7,60.6,44,57.2,44z"/>
		<g>
			<path fill="#2EB36B" d="M40.2,52.5c-0.7,0-1.2-0.3-1.6-0.7c-0.4-0.4-0.7-1-0.7-1.7s0.3-1.2,0.7-1.6c0.8-0.8,2.5-0.8,3.3,0
				c0.4,0.4,0.7,1,0.7,1.6s-0.3,1.2-0.7,1.7C41.4,52.2,40.8,52.5,40.2,52.5z"/>
			<path fill="#2EB36B" d="M30.3,50.1c0-1.3,1-2.3,2.3-2.3l0,0c1.3,0,2.3,1,2.3,2.3l0,0c0,1.3-1,2.3-2.3,2.3l0,0
				C31.3,52.5,30.3,51.4,30.3,50.1z M22.8,50.1c0-1.3,1-2.3,2.3-2.3l0,0c1.3,0,2.3,1,2.3,2.3l0,0c0,1.3-1,2.3-2.3,2.3l0,0
				C23.8,52.5,22.8,51.4,22.8,50.1z M15.2,50.1c0-1.3,1-2.3,2.3-2.3l0,0c1.3,0,2.3,1,2.3,2.3l0,0c0,1.3-1,2.3-2.3,2.3l0,0
				C16.1,52.5,15.2,51.4,15.2,50.1z M7.6,50.1c0-1.3,1-2.3,2.3-2.3l0,0c1.3,0,2.3,1,2.3,2.3l0,0c0,1.3-1,2.3-2.3,2.3l0,0
				C8.6,52.5,7.6,51.4,7.6,50.1z"/>
			<path fill="#2EB36B" d="M2.3,52.5c-0.7,0-1.2-0.3-1.6-0.7c-0.4-0.4-0.7-1-0.7-1.7s0.3-1.2,0.7-1.6c0.8-0.8,2.4-0.8,3.3,0
				c0.4,0.4,0.7,1,0.7,1.6s-0.3,1.2-0.7,1.7C3.5,52.2,3,52.5,2.3,52.5z"/>
		</g>
		<path fill="#2EB36B" d="M77.7,52.5H65.6c-1.3,0-2.3-1-2.3-2.3s1-2.3,2.3-2.3h12.1c1.3,0,2.3,1,2.3,2.3S79,52.5,77.7,52.5z"/>
		<path fill="#2EB36B" d="M22.8,89.4c-6,0-10.8-4.8-10.8-10.8c0-6,4.8-10.8,10.8-10.8s10.8,4.8,10.8,10.8
			C33.6,84.6,28.8,89.4,22.8,89.4z M22.8,72.4c-3.3,0-6.1,2.7-6.1,6.1c0,3.4,2.7,6.1,6.1,6.1s6.1-2.7,6.1-6.1S26.3,72.4,22.8,72.4z"
			/>
		<g>
			<path fill="#2EB36B" d="M39.9,80.9c-0.7,0-1.2-0.3-1.6-0.7c-0.4-0.4-0.7-1-0.7-1.6s0.3-1.2,0.7-1.6c0.8-0.8,2.4-0.8,3.3,0
				c0.4,0.4,0.7,1,0.7,1.6s-0.3,1.2-0.7,1.6C41.1,80.6,40.5,80.9,39.9,80.9z"/>
			<path fill="#2EB36B" d="M67.8,78.6c0-1.3,1-2.3,2.3-2.3l0,0c1.3,0,2.3,1,2.3,2.3l0,0c0,1.3-1,2.3-2.3,2.3l0,0
				C68.8,80.9,67.8,79.9,67.8,78.6z M60.3,78.6c0-1.3,1-2.3,2.3-2.3l0,0c1.3,0,2.3,1,2.3,2.3l0,0c0,1.3-1,2.3-2.3,2.3l0,0
				C61.3,80.9,60.3,79.9,60.3,78.6z M52.6,78.6c0-1.3,1-2.3,2.3-2.3l0,0c1.3,0,2.3,1,2.3,2.3l0,0c0,1.3-1,2.3-2.3,2.3l0,0
				C53.7,80.9,52.6,79.9,52.6,78.6z M45.1,78.6c0-1.3,1-2.3,2.3-2.3l0,0c1.3,0,2.3,1,2.3,2.3l0,0c0,1.3-1,2.3-2.3,2.3l0,0
				C46.1,80.9,45.1,79.9,45.1,78.6z"/>
			<path fill="#2EB36B" d="M77.7,80.9c-0.7,0-1.2-0.3-1.6-0.7c-0.4-0.4-0.7-1-0.7-1.6s0.3-1.2,0.7-1.6c0.8-0.8,2.4-0.8,3.3,0
				c0.4,0.4,0.7,1,0.7,1.6s-0.3,1.2-0.7,1.6C78.9,80.6,78.3,80.9,77.7,80.9z"/>
		</g>
		<path fill="#2EB36B" d="M14.5,80.9H2.5c-1.3,0-2.3-1-2.3-2.3c0-1.3,1-2.3,2.3-2.3h12.1c1.3,0,2.3,1,2.3,2.3
			C16.8,79.9,15.8,80.9,14.5,80.9z"/>
	</g>
</g>
</svg>
