<?xml version="1.0" encoding="utf-8"?>
<!-- Generator: Adobe Illustrator 17.1.0, SVG Export Plug-In . SVG Version: 6.00 Build 0)  -->
<!DOCTYPE svg PUBLIC "-//W3C//DTD SVG 1.1 Basic//EN" "http://www.w3.org/Graphics/SVG/1.1/DTD/svg11-basic.dtd">
<svg version="1.1" baseProfile="basic" id="Layer_1"
	 xmlns="http://www.w3.org/2000/svg" xmlns:xlink="http://www.w3.org/1999/xlink" x="0px" y="0px" viewBox="0 0 100 100"
	 xml:space="preserve">
<g id="Layer_3">
	<path fill="#2EB36B" d="M12.9,79.7c-3.4,0-6.7-1.3-9.1-3.8C1.4,73.5,0,70.3,0,66.8c0-3.4,1.3-6.7,3.8-9.1c2.4-2.4,5.7-3.8,9.1-3.8
		c3.4,0,6.7,1.3,9.1,3.8c2.4,2.4,3.8,5.7,3.8,9.1s-1.3,6.7-3.8,9.1C19.5,78.3,16.3,79.7,12.9,79.7z M12.9,58.7
		c-2.2,0-4.3,0.8-5.9,2.4c-1.6,1.6-2.4,3.6-2.4,5.9s0.8,4.3,2.4,5.9c1.6,1.6,3.6,2.4,5.9,2.4s4.3-0.8,5.9-2.4
		c1.6-1.6,2.4-3.6,2.4-5.9s-0.8-4.3-2.4-5.9C17.2,59.6,15.1,58.7,12.9,58.7z"/>
	<path fill="#2EB36B" d="M74.1,79.7c-3.4,0-6.7-1.3-9.1-3.8c-2.4-2.4-3.8-5.7-3.8-9.1c0-3.4,1.3-6.7,3.8-9.1
		c2.4-2.4,5.7-3.8,9.1-3.8c3.4,0,6.7,1.3,9.1,3.8c2.4,2.4,3.8,5.7,3.8,9.1s-1.3,6.7-3.8,9.1C80.8,78.4,77.6,79.7,74.1,79.7z
		 M74.1,58.7c-2.2,0-4.2,0.8-5.9,2.4c-1.6,1.6-2.4,3.6-2.4,5.9s0.8,4.3,2.4,5.9c1.6,1.6,3.6,2.4,5.9,2.4s4.3-0.8,5.9-2.4
		c1.6-1.6,2.4-3.6,2.4-5.9s-0.8-4.3-2.4-5.9C78.3,59.6,76.3,58.7,74.1,58.7z"/>
	<path fill="#2EB36B" d="M39,42.4L39,42.4c-1.2-0.4-1.9-1.6-1.5-2.9l0,0c0.4-1.2,1.6-1.9,3-1.5l0,0c1.2,0.4,1.9,1.6,1.5,2.9l0,0
		c-0.3,1-1.2,1.6-2.2,1.6l0,0C39.5,42.5,39.3,42.5,39,42.4z M44.8,40.9c-0.4-1.2,0.1-2.5,1.3-3l0,0l0,0l0,0c1.2-0.4,2.5,0.1,3,1.3
		l0,0c0.4,1.2-0.1,2.5-1.3,3l0,0c-0.3,0.1-0.6,0.1-0.8,0.1l0,0C46,42.2,45.2,41.7,44.8,40.9z M32.1,37c-0.7-1.1-0.4-2.5,0.7-3.3l0,0
		c1.1-0.7,2.5-0.4,3.1,0.7l0,0l0,0l0,0c0.7,1.1,0.4,2.5-0.7,3.1l0,0C34.8,37.9,34.4,38,34,38l0,0C33.3,38,32.5,37.7,32.1,37z
		 M51.2,37.1c-1.1-0.6-1.6-2.1-0.9-3.1l0,0c0.6-1.1,2.1-1.6,3.1-0.9l0,0c1.1,0.5,1.6,2.1,0.9,3.1l0,0c-0.4,0.7-1.2,1.2-2.1,1.2l0,0
		C51.9,37.4,51.6,37.3,51.2,37.1z M32.2,31c-1.3-0.1-2.2-1.4-1.9-2.6l0,0c0.1-1.3,1.4-2.2,2.6-1.9l0,0c1.3,0.1,2.2,1.4,1.9,2.6l0,0
		c-0.2,1.2-1.1,2.1-2.3,2.1l0,0C32.4,31,32.3,31,32.2,31z M51,28.4L51,28.4L51,28.4c-0.3-1.3,0.6-2.5,1.8-2.8l0,0
		c1.3-0.3,2.5,0.5,2.8,1.8l0,0c0.3,1.3-0.6,2.5-1.8,2.8l0,0c-0.1,0-0.3,0-0.4,0l0,0C52.2,30.2,51.3,29.5,51,28.4z M34.2,23.9
		c-0.8-0.9-0.7-2.4,0.1-3.3l0,0l0,0l0,0c0.9-0.8,2.4-0.7,3.3,0.2l0,0c0.8,0.9,0.7,2.4-0.1,3.3l0,0l0,0l0,0l0,0l0,0l0,0l0,0
		c-0.4,0.4-1,0.5-1.6,0.5l0,0C35.3,24.6,34.6,24.3,34.2,23.9z M48,23.6c-1-0.8-1.2-2.2-0.4-3.3l0,0c0.7-1,2.2-1.2,3.3-0.4l0,0
		c1,0.8,1.2,2.2,0.4,3.3l0,0c-0.4,0.5-1.1,0.9-1.9,0.9l0,0C48.9,24.2,48.5,24,48,23.6z M40.3,19.6c0-1.3,0.9-2.3,2.2-2.4l0,0
		c1.3-0.1,2.3,0.9,2.4,2.2l0,0c0,1.3-0.9,2.3-2.2,2.4l0,0c0,0,0,0-0.1,0l0,0C41.3,22,40.3,20.9,40.3,19.6z"/>
	<g>
		<path fill="#2EB36B" d="M20.4,61.8c-0.7,0-1.2-0.3-1.6-0.7c-0.4-0.4-0.7-1-0.7-1.7s0.3-1.2,0.7-1.6c0.8-0.8,2.4-0.8,3.3,0
			c0.4,0.4,0.7,1,0.7,1.6s-0.3,1.2-0.7,1.7C21.6,61.5,21,61.8,20.4,61.8z"/>
		<path fill="#2EB36B" d="M23.1,55.8c-1-0.7-1.3-2.2-0.4-3.3l0,0c0.7-1,2.2-1.2,3.3-0.4l0,0c1,0.7,1.2,2.2,0.4,3.3l0,0
			c-0.4,0.7-1.1,0.9-1.9,0.9l0,0C23.9,56.3,23.4,56.1,23.1,55.8z M27.1,50.3c-1-0.7-1.2-2.2-0.4-3.3l0,0c0.7-1,2.2-1.3,3.3-0.4l0,0
			c1,0.7,1.2,2.2,0.4,3.3l0,0c-0.4,0.7-1.1,0.9-1.9,0.9l0,0C28,50.7,27.6,50.6,27.1,50.3z"/>
		<path fill="#2EB36B" d="M32.6,45.3c-0.7,0-1.2-0.3-1.6-0.7c-0.4-0.4-0.7-1-0.7-1.6s0.3-1.2,0.7-1.6c0.8-0.8,2.4-0.8,3.3,0
			c0.4,0.4,0.7,1,0.7,1.6c0,0.6-0.3,1.2-0.7,1.6C33.8,45.1,33.1,45.3,32.6,45.3z"/>
	</g>
	<g>
		<path fill="#2EB36B" d="M54.4,45.3c-0.7,0-1.2-0.3-1.6-0.7c-0.4-0.4-0.7-1-0.7-1.6s0.3-1.2,0.7-1.6c0.8-0.8,2.4-0.8,3.3,0
			c0.4,0.4,0.7,1,0.7,1.6c0,0.6-0.3,1.2-0.7,1.6C55.6,45.1,55.1,45.3,54.4,45.3z"/>
		<path fill="#2EB36B" d="M60.8,55.2c-0.7-1-0.6-2.5,0.4-3.3l0,0c1-0.7,2.5-0.6,3.3,0.4l0,0c0.7,1,0.5,2.5-0.4,3.3l0,0
			c-0.4,0.3-0.9,0.4-1.4,0.4l0,0C61.9,56.3,61.1,55.9,60.8,55.2z M56.7,49.8c-0.7-1-0.6-2.5,0.4-3.3l0,0c1-0.7,2.5-0.6,3.3,0.4l0,0
			c0.7,1,0.6,2.5-0.4,3.3l0,0c-0.4,0.3-0.9,0.4-1.4,0.4l0,0C57.8,50.7,57.1,50.5,56.7,49.8z"/>
		<path fill="#2EB36B" d="M66.6,61.8c-0.7,0-1.2-0.3-1.6-0.7c-0.4-0.4-0.7-1-0.7-1.7s0.3-1.2,0.7-1.6c0.8-0.8,2.4-0.8,3.3,0
			c0.4,0.4,0.7,1,0.7,1.6s-0.3,1.2-0.7,1.7C67.8,61.5,67.3,61.8,66.6,61.8z"/>
	</g>
</g>
</svg>
