<?xml version="1.0" encoding="utf-8"?>
<svg version="1.1" baseProfile="basic" id="Layer_1"
	 xmlns="http://www.w3.org/2000/svg" xmlns:xlink="http://www.w3.org/1999/xlink" x="0px" y="0px" viewBox="0 0 100 100"
	 xml:space="preserve">
<defs>
  <pattern id="pattern1"
           width="2" height="2"
           patternUnits="userSpaceOnUse" >

      <circle cx="1" cy="1" r="0.5" style="stroke: none; fill: #000000" />

  </pattern>
  
    <pattern id="pattern2"
           width="100" height="14"
           patternUnits="userSpaceOnUse" >

      <circle cx="3" cy="1" r="0.5" style="stroke: none; fill: #2eb26a" />
      <circle cx="17" cy="1" r="0.5" style="stroke: none; fill: #2eb26a" />
      <circle cx="31" cy="1" r="0.5" style="stroke: none; fill: #2eb26a" />
      <circle cx="45" cy="1" r="0.5" style="stroke: none; fill: #2eb26a" />
      <circle cx="59" cy="1" r="0.5" style="stroke: none; fill: #2eb26a" />
      <circle cx="73" cy="1" r="0.5" style="stroke: none; fill: #2eb26a" />
      <circle cx="87" cy="1" r="0.5" style="stroke: none; fill: #2eb26a" />
      <circle cx="1" cy="3" r="0.5" style="stroke: none; fill: #2eb26a" />
      <circle cx="15" cy="3" r="0.5" style="stroke: none; fill: #2eb26a" />
      <circle cx="29" cy="3" r="0.5" style="stroke: none; fill: #2eb26a" />
      <circle cx="43" cy="3" r="0.5" style="stroke: none; fill: #2eb26a" />
      <circle cx="57" cy="3" r="0.5" style="stroke: none; fill: #2eb26a" />
      <circle cx="71" cy="3" r="0.5" style="stroke: none; fill: #2eb26a" />
      <circle cx="85" cy="3" r="0.5" style="stroke: none; fill: #2eb26a" />
	  <circle cx="99" cy="3" r="0.5" style="stroke: none; fill: #2eb26a" />
      <circle cx="13" cy="5" r="0.5" style="stroke: none; fill: #2eb26a" />
      <circle cx="27" cy="5" r="0.5" style="stroke: none; fill: #2eb26a" />
      <circle cx="41" cy="5" r="0.5" style="stroke: none; fill: #2eb26a" />
      <circle cx="55" cy="5" r="0.5" style="stroke: none; fill: #2eb26a" />
      <circle cx="69" cy="5" r="0.5" style="stroke: none; fill: #2eb26a" />
      <circle cx="83" cy="5" r="0.5" style="stroke: none; fill: #2eb26a" />
	  <circle cx="97" cy="5" r="0.5" style="stroke: none; fill: #2eb26a" />
      <circle cx="11" cy="7" r="0.5" style="stroke: none; fill: #2eb26a" />
      <circle cx="25" cy="7" r="0.5" style="stroke: none; fill: #2eb26a" />
      <circle cx="39" cy="7" r="0.5" style="stroke: none; fill: #2eb26a" />
      <circle cx="53" cy="7" r="0.5" style="stroke: none; fill: #2eb26a" />
      <circle cx="67" cy="7" r="0.5" style="stroke: none; fill: #2eb26a" />
      <circle cx="81" cy="7" r="0.5" style="stroke: none; fill: #2eb26a" />
	  <circle cx="95" cy="7" r="0.5" style="stroke: none; fill: #2eb26a" />
      <circle cx="9" cy="9" r="0.5" style="stroke: none; fill: #2eb26a" />
      <circle cx="23" cy="9" r="0.5" style="stroke: none; fill: #2eb26a" />
      <circle cx="37" cy="9" r="0.5" style="stroke: none; fill: #2eb26a" />
      <circle cx="51" cy="9" r="0.5" style="stroke: none; fill: #2eb26a" />
      <circle cx="65" cy="9" r="0.5" style="stroke: none; fill: #2eb26a" />
      <circle cx="79" cy="9" r="0.5" style="stroke: none; fill: #2eb26a" />
	  <circle cx="93" cy="9" r="0.5" style="stroke: none; fill: #2eb26a" />
      <circle cx="7" cy="11" r="0.5" style="stroke: none; fill: #2eb26a" />
      <circle cx="21" cy="11" r="0.5" style="stroke: none; fill: #2eb26a" />
      <circle cx="35" cy="11" r="0.5" style="stroke: none; fill: #2eb26a" />
      <circle cx="49" cy="11" r="0.5" style="stroke: none; fill: #2eb26a" />
      <circle cx="63" cy="11" r="0.5" style="stroke: none; fill: #2eb26a" />
      <circle cx="77" cy="11" r="0.5" style="stroke: none; fill: #2eb26a" />
	  <circle cx="91" cy="11" r="0.5" style="stroke: none; fill: #2eb26a" />
      <circle cx="5" cy="13" r="0.5" style="stroke: none; fill: #2eb26a" />
      <circle cx="19" cy="13" r="0.5" style="stroke: none; fill: #2eb26a" />
      <circle cx="33" cy="13" r="0.5" style="stroke: none; fill: #2eb26a" />
      <circle cx="47" cy="13" r="0.5" style="stroke: none; fill: #2eb26a" />
      <circle cx="61" cy="13" r="0.5" style="stroke: none; fill: #2eb26a" />
      <circle cx="75" cy="13" r="0.5" style="stroke: none; fill: #2eb26a" />
	  <circle cx="89" cy="13" r="0.5" style="stroke: none; fill: #2eb26a" />	  
	  
  </pattern>
  
  <pattern id="pattern3"
           width="100" height="18"
           patternUnits="userSpaceOnUse" >

      <circle cx="1" cy="1" r="0.5" style="stroke: none; fill: #ebd68c" />
      <circle cx="19" cy="1" r="0.5" style="stroke: none; fill: #ebd68c" />
      <circle cx="37" cy="1" r="0.5" style="stroke: none; fill: #ebd68c" />
      <circle cx="55" cy="1" r="0.5" style="stroke: none; fill: #ebd68c" />
      <circle cx="73" cy="1" r="0.5" style="stroke: none; fill: #ebd68c" />
      <circle cx="91" cy="1" r="0.5" style="stroke: none; fill: #ebd68c" />

      <circle cx="9" cy="3" r="0.5" style="stroke: none; fill: #ebd68c" />
      <circle cx="27" cy="3" r="0.5" style="stroke: none; fill: #ebd68c" />
      <circle cx="45" cy="3" r="0.5" style="stroke: none; fill: #ebd68c" />
      <circle cx="63" cy="3" r="0.5" style="stroke: none; fill: #ebd68c" />
      <circle cx="81" cy="3" r="0.5" style="stroke: none; fill: #ebd68c" />
      <circle cx="99" cy="3" r="0.5" style="stroke: none; fill: #ebd68c" />
  
      <circle cx="17" cy="5" r="0.5" style="stroke: none; fill: #ebd68c" />
      <circle cx="35" cy="5" r="0.5" style="stroke: none; fill: #ebd68c" />
      <circle cx="53" cy="5" r="0.5" style="stroke: none; fill: #ebd68c" />
      <circle cx="71" cy="5" r="0.5" style="stroke: none; fill: #ebd68c" />
      <circle cx="89" cy="5" r="0.5" style="stroke: none; fill: #ebd68c" />

      <circle cx="7" cy="7" r="0.5" style="stroke: none; fill: #ebd68c" />
      <circle cx="25" cy="7" r="0.5" style="stroke: none; fill: #ebd68c" />
      <circle cx="43" cy="7" r="0.5" style="stroke: none; fill: #ebd68c" />
      <circle cx="61" cy="7" r="0.5" style="stroke: none; fill: #ebd68c" />
      <circle cx="79" cy="7" r="0.5" style="stroke: none; fill: #ebd68c" />
      <circle cx="97" cy="7" r="0.5" style="stroke: none; fill: #ebd68c" />
	  	  
      <circle cx="15" cy="9" r="0.5" style="stroke: none; fill: #ebd68c" />
      <circle cx="33" cy="9" r="0.5" style="stroke: none; fill: #ebd68c" />
      <circle cx="51" cy="9" r="0.5" style="stroke: none; fill: #ebd68c" />
      <circle cx="69" cy="9" r="0.5" style="stroke: none; fill: #ebd68c" />
      <circle cx="87" cy="9" r="0.5" style="stroke: none; fill: #ebd68c" />

      <circle cx="5" cy="11" r="0.5" style="stroke: none; fill: #ebd68c" />
      <circle cx="23" cy="11" r="0.5" style="stroke: none; fill: #ebd68c" />
      <circle cx="41" cy="11" r="0.5" style="stroke: none; fill: #ebd68c" />
      <circle cx="59" cy="11" r="0.5" style="stroke: none; fill: #ebd68c" />
      <circle cx="77" cy="11" r="0.5" style="stroke: none; fill: #ebd68c" />
      <circle cx="95" cy="11" r="0.5" style="stroke: none; fill: #ebd68c" />
	  	  
	  <circle cx="13" cy="13" r="0.5" style="stroke: none; fill: #ebd68c" />
      <circle cx="31" cy="13" r="0.5" style="stroke: none; fill: #ebd68c" />
      <circle cx="49" cy="13" r="0.5" style="stroke: none; fill: #ebd68c" />
      <circle cx="67" cy="13" r="0.5" style="stroke: none; fill: #ebd68c" />
      <circle cx="85" cy="13" r="0.5" style="stroke: none; fill: #ebd68c" />

      <circle cx="3" cy="15" r="0.5" style="stroke: none; fill: #ebd68c" />
      <circle cx="21" cy="15" r="0.5" style="stroke: none; fill: #ebd68c" />
      <circle cx="39" cy="15" r="0.5" style="stroke: none; fill: #ebd68c" />
      <circle cx="57" cy="15" r="0.5" style="stroke: none; fill: #ebd68c" />
      <circle cx="75" cy="15" r="0.5" style="stroke: none; fill: #ebd68c" />
      <circle cx="93" cy="15" r="0.5" style="stroke: none; fill: #ebd68c" />
	  	  
	  <circle cx="11" cy="17" r="0.5" style="stroke: none; fill: #ebd68c" />
      <circle cx="29" cy="17" r="0.5" style="stroke: none; fill: #ebd68c" />
      <circle cx="47" cy="17" r="0.5" style="stroke: none; fill: #ebd68c" />
      <circle cx="65" cy="17" r="0.5" style="stroke: none; fill: #ebd68c" />
      <circle cx="83" cy="17" r="0.5" style="stroke: none; fill: #ebd68c" />
	  
  </pattern>
  
</defs>

<rect width="100" height="100"
    style="stroke: none; fill: url(#pattern1);" /> 
	
<rect width="100" height="100"
    style="stroke: none; fill: url(#pattern2);" /> 	

<rect width="100" height="100"
    style="stroke: none; fill: url(#pattern3);" /> 	

</svg>	