<?xml version="1.0" encoding="utf-8"?>
<!-- Generator: Adobe Illustrator 17.1.0, SVG Export Plug-In . SVG Version: 6.00 Build 0)  -->
<!DOCTYPE svg PUBLIC "-//W3C//DTD SVG 1.1 Basic//EN" "http://www.w3.org/Graphics/SVG/1.1/DTD/svg11-basic.dtd">
<svg version="1.1" baseProfile="basic" id="Layer_1"
	 xmlns="http://www.w3.org/2000/svg" xmlns:xlink="http://www.w3.org/1999/xlink" x="0px" y="0px" viewBox="0 0 100 100"
	 xml:space="preserve">
<g id="Layer_4">
	<path fill="#2EB36B" d="M77.7,17.4H2.3c-1.3,0-2.3-1-2.3-2.3c0-1.3,1-2.3,2.3-2.3h75.4c1.3,0,2.3,1,2.3,2.3
		C80,16.4,79,17.4,77.7,17.4z"/>
	<path fill="#2EB36B" d="M77.7,73.6H2.3c-1.3,0-2.3-1-2.3-2.3C0,70,1,69,2.3,69h75.4c1.3,0,2.3,1,2.3,2.3C80,72.6,79,73.6,77.7,73.6
		z"/>
	<g>
		<path fill="#2EB36B" d="M9.5,19c-0.7,0-1.2-0.3-1.6-0.7c-0.4-0.4-0.7-1-0.7-1.6c0-0.6,0.3-1.2,0.7-1.6c0.8-0.8,2.4-0.8,3.3,0
			c0.4,0.4,0.7,1,0.7,1.6c0,0.5-0.3,1.2-0.7,1.6C10.7,18.8,10.2,19,9.5,19z"/>
		<path fill="#2EB36B" d="M7.2,62.1c0-1.3,1-2.3,2.3-2.3l0,0c1.3,0,2.3,1,2.3,2.3l0,0c0,1.3-1,2.3-2.3,2.3l0,0
			C8.3,64.4,7.2,63.3,7.2,62.1z M7.2,54.5c0-1.3,1-2.3,2.3-2.3l0,0c1.3,0,2.3,1,2.3,2.3l0,0c0,1.3-1,2.3-2.3,2.3l0,0
			C8.3,56.9,7.2,55.8,7.2,54.5z M7.2,46.9c0-1.3,1-2.3,2.3-2.3l0,0c1.3,0,2.3,1,2.3,2.3l0,0c0,1.3-1,2.3-2.3,2.3l0,0
			C8.3,49.3,7.2,48.3,7.2,46.9z M7.2,39.4c0-1.3,1-2.3,2.3-2.3l0,0c1.3,0,2.3,1,2.3,2.3l0,0c0,1.3-1,2.3-2.3,2.3l0,0
			C8.3,41.7,7.2,40.6,7.2,39.4z M7.2,31.7c0-1.3,1-2.3,2.3-2.3l0,0c1.3,0,2.3,1,2.3,2.3l0,0c0,1.3-1,2.3-2.3,2.3l0,0
			C8.3,34.1,7.2,33.1,7.2,31.7z M7.2,24.2c0-1.3,1-2.3,2.3-2.3l0,0c1.3,0,2.3,1,2.3,2.3l0,0c0,1.3-1,2.3-2.3,2.3l0,0
			C8.3,26.5,7.2,25.6,7.2,24.2z"/>
		<path fill="#2EB36B" d="M9.5,72c-0.7,0-1.2-0.3-1.6-0.7c-0.4-0.4-0.7-1-0.7-1.6s0.3-1.2,0.7-1.7c0.8-0.8,2.4-0.8,3.3,0
			c0.4,0.4,0.7,1,0.7,1.7c0,0.5-0.3,1.2-0.7,1.6C10.7,71.7,10.2,72,9.5,72z"/>
	</g>
	<g>
		<path fill="#2EB36B" d="M70.5,19c-0.7,0-1.2-0.3-1.6-0.7c-0.4-0.4-0.7-1-0.7-1.6c0-0.6,0.3-1.2,0.7-1.6c0.8-0.8,2.4-0.8,3.3,0
			c0.4,0.4,0.7,1,0.7,1.6c0,0.6-0.3,1.2-0.7,1.6C71.7,18.8,71.1,19,70.5,19z"/>
		<path fill="#2EB36B" d="M68.1,62.1c0-1.3,1-2.3,2.3-2.3l0,0c1.3,0,2.3,1,2.3,2.3l0,0c0,1.3-1,2.3-2.3,2.3l0,0
			C69.1,64.4,68.1,63.3,68.1,62.1z M68.1,54.5c0-1.3,1-2.3,2.3-2.3l0,0c1.3,0,2.3,1,2.3,2.3l0,0c0,1.3-1,2.3-2.3,2.3l0,0
			C69.1,56.9,68.1,55.8,68.1,54.5z M68.1,46.9c0-1.3,1-2.3,2.3-2.3l0,0c1.3,0,2.3,1,2.3,2.3l0,0c0,1.3-1,2.3-2.3,2.3l0,0
			C69.1,49.3,68.1,48.3,68.1,46.9z M68.1,39.4c0-1.3,1-2.3,2.3-2.3l0,0c1.3,0,2.3,1,2.3,2.3l0,0c0,1.3-1,2.3-2.3,2.3l0,0
			C69.1,41.7,68.1,40.6,68.1,39.4z M68.1,31.7c0-1.3,1-2.3,2.3-2.3l0,0c1.3,0,2.3,1,2.3,2.3l0,0c0,1.3-1,2.3-2.3,2.3l0,0
			C69.1,34.1,68.1,33.1,68.1,31.7z M68.1,24.2c0-1.3,1-2.3,2.3-2.3l0,0c1.3,0,2.3,1,2.3,2.3l0,0c0,1.3-1,2.3-2.3,2.3l0,0
			C69.1,26.5,68.1,25.6,68.1,24.2z"/>
		<path fill="#2EB36B" d="M70.5,72c-0.7,0-1.2-0.3-1.6-0.7c-0.4-0.4-0.7-1-0.7-1.6s0.3-1.2,0.7-1.7c0.8-0.8,2.4-0.8,3.3,0
			c0.4,0.4,0.7,1,0.7,1.7s-0.3,1.2-0.7,1.6C71.7,71.7,71.1,72,70.5,72z"/>
	</g>
	<path fill="#2EB36B" d="M37.2,79.1c0-1.3,1-2.3,2.3-2.3l0,0c1.3,0,2.3,1,2.3,2.3l0,0c0,1.3-1,2.3-2.3,2.3l0,0
		C38.2,81.4,37.2,80.3,37.2,79.1z"/>
	<g>
		<path fill="#2EB36B" d="M46.4,88.1c-0.7,0-1.2-0.3-1.6-0.7c-0.4-0.4-0.7-1-0.7-1.6c0-0.6,0.3-1.2,0.7-1.6c0.8-0.8,2.4-0.8,3.3,0
			c0.4,0.4,0.7,1,0.7,1.6c0,0.6-0.3,1.2-0.7,1.6C47.7,87.8,47.1,88.1,46.4,88.1z"/>
		<path fill="#2EB36B" d="M37.2,85.7c0-1.3,1-2.3,2.3-2.3l0,0c1.3,0,2.3,1,2.3,2.3l0,0c0,1.3-1,2.3-2.3,2.3l0,0
			C38.2,88.1,37.2,87,37.2,85.7z"/>
		<path fill="#2EB36B" d="M32.6,88.1c-0.7,0-1.2-0.3-1.6-0.7c-0.4-0.4-0.7-1-0.7-1.6c0-0.6,0.3-1.2,0.7-1.6c0.8-0.8,2.4-0.8,3.3,0
			c0.4,0.4,0.7,1,0.7,1.6c0,0.6-0.3,1.2-0.7,1.6C33.8,87.8,33.3,88.1,32.6,88.1z"/>
	</g>
	<path fill="#2EB36B" d="M21.3,52.6c-0.7,0-1.5-0.4-1.9-1C18.6,50.4,19,49,20,48.3l16-10.4c0.5-0.4,1.3-0.4,1.9-0.3
		c0.7,0.2,1.2,0.7,1.5,1.4l2.9,7.7l15.4-9.9c1.1-0.7,2.5-0.4,3.3,0.7c0.7,1.1,0.4,2.5-0.7,3.3L42.5,52.3c-0.5,0.4-1.3,0.4-1.9,0.3
		c-0.7-0.1-1.2-0.7-1.5-1.4l-2.9-7.7l-13.6,8.9C22.1,52.5,21.8,52.6,21.3,52.6z"/>
</g>
</svg>
